<svg width="20" height="21" viewBox="0 0 20 21" fill="none" xmlns="http://www.w3.org/2000/svg">
<path d="M7.50033 2.1665C5.31699 2.1665 3.54199 3.9415 3.54199 6.12484C3.54199 8.2665 5.21699 9.99984 7.40033 10.0748C7.46699 10.0665 7.53366 10.0665 7.58366 10.0748C7.60033 10.0748 7.60866 10.0748 7.62532 10.0748C7.63366 10.0748 7.63366 10.0748 7.64199 10.0748C9.77532 9.99984 11.4503 8.2665 11.4587 6.12484C11.4587 3.9415 9.68366 2.1665 7.50033 2.1665Z" fill="#C4C4C4"/>
<path d="M11.7338 12.2919C9.40879 10.7419 5.61712 10.7419 3.27546 12.2919C2.21712 13.0002 1.63379 13.9586 1.63379 14.9836C1.63379 16.0086 2.21712 16.9586 3.26712 17.6586C4.43379 18.4419 5.96712 18.8336 7.50046 18.8336C9.03379 18.8336 10.5671 18.4419 11.7338 17.6586C12.7838 16.9502 13.3671 16.0002 13.3671 14.9669C13.3588 13.9419 12.7838 12.9919 11.7338 12.2919Z" fill="#C4C4C4"/>
<path d="M16.6588 6.61659C16.7921 8.23325 15.6421 9.64992 14.0505 9.84159C14.0421 9.84159 14.0421 9.84159 14.0338 9.84159H14.0088C13.9588 9.84159 13.9088 9.84159 13.8671 9.85825C13.0588 9.89992 12.3171 9.64159 11.7588 9.16659C12.6171 8.39992 13.1088 7.24992 13.0088 5.99992C12.9505 5.32492 12.7171 4.70825 12.3671 4.18325C12.6838 4.02492 13.0505 3.92492 13.4255 3.89159C15.0588 3.74992 16.5171 4.96659 16.6588 6.61659Z" fill="#C4C4C4"/>
<path d="M18.3249 14.3252C18.2582 15.1335 17.7415 15.8335 16.8749 16.3085C16.0415 16.7668 14.9915 16.9835 13.9499 16.9585C14.5499 16.4168 14.8999 15.7418 14.9665 15.0252C15.0499 13.9918 14.5582 13.0002 13.5749 12.2085C13.0165 11.7668 12.3665 11.4168 11.6582 11.1585C13.4999 10.6252 15.8165 10.9835 17.2415 12.1335C18.0082 12.7502 18.3999 13.5252 18.3249 14.3252Z" fill="#C4C4C4"/>
</svg>
