<svg width="24" height="24" viewBox="0 0 24 24" fill="none" xmlns="http://www.w3.org/2000/svg">
<g filter="url(#filter0_i_244_5534)">
<path d="M15 17.625C14.9264 19.4769 13.3831 21.0494 11.3156 20.9988C10.8346 20.987 10.2401 20.8194 9.05112 20.484C6.18961 19.6768 3.70555 18.3203 3.10956 15.2815C3 14.723 3 14.0944 3 12.8373L3 11.1627C3 9.90561 3 9.27705 3.10956 8.71846C3.70555 5.67965 6.18961 4.32316 9.05112 3.51603C10.2401 3.18064 10.8346 3.01295 11.3156 3.00119C13.3831 2.95061 14.9264 4.52307 15 6.37501" stroke="#B2B2B2" stroke-width="3" stroke-linecap="round"/>
<path d="M21 12H10M21 12C21 11.2998 19.0057 9.99153 18.5 9.5M21 12C21 12.7002 19.0057 14.0085 18.5 14.5" stroke="#B2B2B2" stroke-width="3" stroke-linecap="round" stroke-linejoin="round"/>
</g>
<defs>
<filter id="filter0_i_244_5534" x="1.5" y="1.5" width="21" height="25" filterUnits="userSpaceOnUse" color-interpolation-filters="sRGB">
<feFlood flood-opacity="0" result="BackgroundImageFix"/>
<feBlend mode="normal" in="SourceGraphic" in2="BackgroundImageFix" result="shape"/>
<feColorMatrix in="SourceAlpha" type="matrix" values="0 0 0 0 0 0 0 0 0 0 0 0 0 0 0 0 0 0 127 0" result="hardAlpha"/>
<feOffset dy="4"/>
<feGaussianBlur stdDeviation="2"/>
<feComposite in2="hardAlpha" operator="arithmetic" k2="-1" k3="1"/>
<feColorMatrix type="matrix" values="0 0 0 0 0 0 0 0 0 0 0 0 0 0 0 0 0 0 0.07 0"/>
<feBlend mode="normal" in2="shape" result="effect1_innerShadow_244_5534"/>
</filter>
</defs>
</svg>
