<svg width="195" height="97" viewBox="0 0 195 97" fill="none" xmlns="http://www.w3.org/2000/svg">
<g filter="url(#filter0_d_263_5381)">
<path d="M121.586 38.8076C121.558 40.0744 119.705 41.0972 117.42 41.0972C115.137 41.0972 113.283 40.0744 113.255 38.8076C109.761 39.1309 107.024 42.1062 107.024 45.7294C107.024 49.5687 110.097 49.5597 113.887 49.5597H120.953C124.743 49.5597 127.816 49.5687 127.816 45.7294C127.817 42.1062 125.08 39.1309 121.586 38.8076Z" fill="#377DFF"/>
<path d="M112.23 32.5239C112.235 32.5741 112.238 32.6242 112.243 32.6737C112.574 36.4691 114.766 39.4011 117.421 39.4011C120.076 39.4011 122.268 36.4691 122.599 32.6737C122.603 32.6242 122.608 32.5741 122.612 32.5239C122.636 32.3595 122.652 32.1922 122.661 32.0236C122.667 31.908 122.672 31.7916 122.672 31.6738C122.672 31.3861 122.652 31.1018 122.612 30.8245C122.228 28.1356 120.05 26.0752 117.421 26.0752C114.792 26.0752 112.614 28.1356 112.23 30.8245C112.191 31.1011 112.17 31.3861 112.17 31.6738C112.17 31.7916 112.175 31.908 112.182 32.0236C112.191 32.1929 112.206 32.3595 112.23 32.5239ZM114.182 29.5048C114.182 29.5048 115.693 30.2482 117.421 30.2963C119.149 30.2489 120.66 29.5048 120.66 29.5048C121.755 29.9423 121.235 33.0618 121.235 33.0618C121.509 32.8688 121.761 32.7678 121.964 32.7162C121.663 36.0322 119.744 38.588 117.421 38.588C115.099 38.588 113.179 36.0322 112.878 32.7162C113.083 32.7678 113.333 32.8688 113.607 33.0618C113.606 33.0625 113.087 29.9423 114.182 29.5048Z" fill="#377DFF"/>
<path d="M102.531 13.9091C103.677 14.0394 104.682 14.2394 104.682 14.2394C102.396 12.9657 102.455 8.39481 102.455 8.39481C102.855 -0.459199 97.0865 0.00415979 97.0865 0.00415979L97.0824 0.0180957L97.0783 0.00415979C97.0783 0.00415979 91.3102 -0.458503 91.7105 8.39481C91.7105 8.39481 91.769 12.9664 89.4827 14.2394C89.4827 14.2394 90.0983 14.1969 90.9216 14.1816C88.5885 15.2372 86.9639 17.607 86.9639 20.3627C86.9639 24.0996 89.9545 23.439 93.6433 23.439H100.522C104.211 23.439 107.202 24.0996 107.202 20.3627C107.201 17.3345 105.238 14.7738 102.531 13.9091ZM98.6279 15.6838L97.0824 18.2271L95.5368 15.6838C94.4143 15.426 93.5463 14.8951 93.1969 14.2408C94.1027 14.3209 94.8704 14.4882 95.0691 14.8184L94.2176 12.896C95.0334 13.721 96.019 14.2039 97.0817 14.2039C98.1203 14.2039 99.0846 13.7426 99.8894 12.9525L99.2958 14.2039C99.4946 13.8722 100.242 13.7823 101.119 13.8046C100.98 14.6561 99.9912 15.371 98.6279 15.6838ZM101.518 7.53568C101.431 8.70766 101.136 9.78698 100.691 10.6928C99.8797 12.34 98.566 13.4109 97.0824 13.4109C94.8215 13.4109 92.9534 10.922 92.6597 7.69524C92.6597 7.69524 94.4453 7.39632 95.5114 6.96919C95.5114 6.96919 97.4428 6.31561 99.802 4.59456C99.8137 4.5862 99.8247 4.57784 99.8371 4.56878C99.8371 4.56878 99.8797 4.63009 99.9396 4.73531C100.144 5.09067 100.583 6.15047 99.7532 6.63543L101.263 6.83053H101.29L101.567 6.88209C101.565 7.10437 101.549 7.32246 101.518 7.53568Z" fill="#377DFF"/>
<path d="M71.2476 32.5232C71.2518 32.5734 71.2559 32.6242 71.26 32.6737C71.5909 36.4691 73.7836 39.4011 76.4379 39.4011C79.0929 39.4011 81.285 36.4691 81.6158 32.6737C81.6199 32.6242 81.6241 32.5734 81.6282 32.5232C81.6523 32.3588 81.6674 32.1922 81.6777 32.0229C81.6839 31.908 81.6887 31.7909 81.6887 31.6738C81.6887 31.3854 81.6681 31.1018 81.6289 30.8245C81.2451 28.1349 79.0674 26.0752 76.4386 26.0752C73.8098 26.0752 71.6321 28.1349 71.2483 30.8245C71.2084 31.1011 71.1885 31.3854 71.1885 31.6738C71.1885 31.7909 71.1933 31.908 71.1995 32.0229C71.2077 32.1929 71.2236 32.3588 71.2476 32.5232ZM73.1997 29.5048C73.1997 29.5048 74.7108 30.2482 76.4379 30.2963C78.1657 30.2489 79.6769 29.5048 79.6769 29.5048C80.7719 29.9423 80.2526 33.0618 80.2526 33.0618C80.5263 32.8688 80.7767 32.7678 80.981 32.7162C80.6797 36.0322 78.7607 38.588 76.4379 38.588C74.1145 38.588 72.1961 36.0322 71.8949 32.7162C72.0991 32.7678 72.3502 32.8688 72.6233 33.0618C72.6233 33.0618 72.104 29.9423 73.1997 29.5048Z" fill="#377DFF"/>
<path d="M80.9839 38.7109C80.9722 38.7088 80.9598 38.7081 80.9481 38.7067C80.8511 38.6928 80.7542 38.6816 80.6558 38.6719C80.6551 38.6823 80.6531 38.6921 80.6524 38.7025C80.651 38.7318 80.6455 38.7597 80.6427 38.7896C80.6249 38.9541 80.576 39.1143 80.4997 39.2683C79.9893 40.5699 78.3379 43.0372 77.3653 44.4384L77.1644 41.528C77.4485 41.3803 77.6934 41.1357 77.8495 40.8528C77.9623 40.6486 78.0311 40.4264 78.0311 40.1992C78.0311 40.1992 77.3054 40.5253 76.5653 40.5253C76.5227 40.5253 76.4807 40.5232 76.4381 40.5211C76.3955 40.5232 76.3535 40.5253 76.3115 40.5253C75.5708 40.5253 74.8451 40.1992 74.8451 40.1992C74.8451 40.4257 74.9139 40.6486 75.0267 40.8528C75.1835 41.1357 75.4277 41.3803 75.7118 41.528L75.5109 44.4384C74.5383 43.0372 72.8869 40.5699 72.3765 39.2683C72.3002 39.1143 72.252 38.9548 72.2335 38.7896C72.2307 38.7597 72.2252 38.7318 72.2231 38.7025C72.2231 38.6921 72.2211 38.6823 72.2204 38.6719C72.122 38.6816 72.025 38.6928 71.9288 38.7067C71.9164 38.7081 71.904 38.7088 71.8923 38.7109C68.5137 39.1875 65.9131 42.1265 65.9131 45.6801C65.9131 49.5675 69.0241 49.5584 72.8607 49.5584H76.4381H80.0154C83.8521 49.5584 86.9631 49.5675 86.9631 45.6801C86.9631 42.1265 84.3631 39.1875 80.9839 38.7109Z" fill="#377DFF"/>
<path d="M98.7567 26.0928H95.4084V34.5608L88.1719 38.7923L89.846 41.7307L97.0826 37.4984L104.318 41.7307L105.993 38.7923L98.7567 34.5608V26.0928Z" fill="#377DFF"/>
</g>
<g filter="url(#filter1_d_263_5381)">
<path d="M16.0818 88.4901C9.12863 88.4901 4.00977 83.6254 4.00977 76.0074C4.00977 68.288 9.24542 63.4064 16.3319 63.4064C20.984 63.4064 24.8358 65.484 26.9366 69.1494L22.5512 71.5142C21.284 69.0143 19.0163 67.815 16.3318 67.815C12.1632 67.815 9.02858 70.7203 9.02858 75.8891C9.02858 80.8721 11.9633 84.0813 16.5153 84.0813C19.5999 84.0813 22.4346 82.5273 23.1183 78.9632H16.532V74.8924H27.8538V88.1521H23.9187V84.7739C22.368 87.088 19.7668 88.4901 16.0818 88.4901ZM47.0126 68.2039H38.0753V73.7443H45.9955V78.1529H38.0753V83.6764H47.0126V88.1526H33.0397V63.7452H47.0126V68.2039ZM68.6221 63.7448H73.6076V88.1523H67.8217L57.1503 70.7033V88.1523H52.1647V63.7448H57.8839L68.6221 81.0918V63.7448ZM79.8436 88.1523V63.7448H84.8458V88.1523H79.8436ZM99.9859 88.4901C94.7002 88.4901 90.565 85.7538 90.565 79.6053V63.7443H95.5672V78.9127C95.5672 82.6288 97.5181 84.0139 99.9859 84.0139C102.47 84.0139 104.438 82.6119 104.438 78.9127V63.7443H109.44V79.6053C109.44 85.7538 105.288 88.4901 99.9859 88.4901ZM123.18 88.4901C118.011 88.4901 113.975 85.9733 113.242 81.3957L118.411 80.1964C118.744 82.9327 120.728 84.3516 123.38 84.3516C125.414 84.3516 127.031 83.4395 127.015 81.3786C126.998 79.0814 124.33 78.3552 121.395 77.4429C117.861 76.3281 114.076 75.0105 114.076 70.5175C114.076 65.9736 117.744 63.4062 122.579 63.4062C126.815 63.4062 131.083 65.1461 132.05 69.8249L127.215 71.0411C126.765 68.6086 125.147 67.5446 122.88 67.5446C120.862 67.5446 119.145 68.3891 119.145 70.3992C119.145 72.2742 121.512 72.8991 124.247 73.7268C127.882 74.8416 132.184 76.2604 132.184 81.1251C132.184 86.3107 127.898 88.4901 123.18 88.4901Z" fill="#377DFF"/>
</g>
<g filter="url(#filter2_d_263_5381)">
<path d="M161.361 63.4062H165.529V88.4901H161.361V77.7777H149.867V88.4901H145.699V63.4062H149.867V74.0659H161.361V63.4062ZM185.844 88.4901L179.419 77.3029H176.745V88.4901H172.595V63.4062H181.191C186.556 63.4062 188.917 66.6603 188.917 70.6886C188.917 74.1891 186.869 76.5462 183.587 77.1442L190.723 88.4898L185.844 88.4901ZM176.745 66.9601V74.1896H180.583C183.622 74.1896 184.924 72.7473 184.924 70.6012C184.924 68.4729 183.622 66.9601 180.583 66.9601H176.745Z" fill="#377DFF"/>
</g>
<defs>
<filter id="filter0_d_263_5381" x="61.9131" y="0" width="69.9023" height="57.5596" filterUnits="userSpaceOnUse" color-interpolation-filters="sRGB">
<feFlood flood-opacity="0" result="BackgroundImageFix"/>
<feColorMatrix in="SourceAlpha" type="matrix" values="0 0 0 0 0 0 0 0 0 0 0 0 0 0 0 0 0 0 127 0" result="hardAlpha"/>
<feOffset dy="4"/>
<feGaussianBlur stdDeviation="2"/>
<feComposite in2="hardAlpha" operator="out"/>
<feColorMatrix type="matrix" values="0 0 0 0 0 0 0 0 0 0 0 0 0 0 0 0 0 0 0.25 0"/>
<feBlend mode="normal" in2="BackgroundImageFix" result="effect1_dropShadow_263_5381"/>
<feBlend mode="normal" in="SourceGraphic" in2="effect1_dropShadow_263_5381" result="shape"/>
</filter>
<filter id="filter1_d_263_5381" x="0.00976562" y="63.4062" width="136.174" height="33.084" filterUnits="userSpaceOnUse" color-interpolation-filters="sRGB">
<feFlood flood-opacity="0" result="BackgroundImageFix"/>
<feColorMatrix in="SourceAlpha" type="matrix" values="0 0 0 0 0 0 0 0 0 0 0 0 0 0 0 0 0 0 127 0" result="hardAlpha"/>
<feOffset dy="4"/>
<feGaussianBlur stdDeviation="2"/>
<feComposite in2="hardAlpha" operator="out"/>
<feColorMatrix type="matrix" values="0 0 0 0 0 0 0 0 0 0 0 0 0 0 0 0 0 0 0.25 0"/>
<feBlend mode="normal" in2="BackgroundImageFix" result="effect1_dropShadow_263_5381"/>
<feBlend mode="normal" in="SourceGraphic" in2="effect1_dropShadow_263_5381" result="shape"/>
</filter>
<filter id="filter2_d_263_5381" x="141.699" y="63.4062" width="53.0244" height="33.084" filterUnits="userSpaceOnUse" color-interpolation-filters="sRGB">
<feFlood flood-opacity="0" result="BackgroundImageFix"/>
<feColorMatrix in="SourceAlpha" type="matrix" values="0 0 0 0 0 0 0 0 0 0 0 0 0 0 0 0 0 0 127 0" result="hardAlpha"/>
<feOffset dy="4"/>
<feGaussianBlur stdDeviation="2"/>
<feComposite in2="hardAlpha" operator="out"/>
<feColorMatrix type="matrix" values="0 0 0 0 0 0 0 0 0 0 0 0 0 0 0 0 0 0 0.25 0"/>
<feBlend mode="normal" in2="BackgroundImageFix" result="effect1_dropShadow_263_5381"/>
<feBlend mode="normal" in="SourceGraphic" in2="effect1_dropShadow_263_5381" result="shape"/>
</filter>
</defs>
</svg>
