<svg width="230" height="108" viewBox="0 0 230 108" fill="none" xmlns="http://www.w3.org/2000/svg">
<g filter="url(#filter0_d_244_5496)">
<path d="M139.586 38.8076C139.558 40.0744 137.705 41.0972 135.42 41.0972C133.137 41.0972 131.283 40.0744 131.255 38.8076C127.761 39.1309 125.024 42.1062 125.024 45.7294C125.024 49.5687 128.097 49.5597 131.887 49.5597H138.953C142.743 49.5597 145.816 49.5687 145.816 45.7294C145.817 42.1062 143.08 39.1309 139.586 38.8076Z" fill="#377DFF"/>
<path d="M130.23 32.5239C130.235 32.5741 130.238 32.6242 130.243 32.6737C130.574 36.4691 132.766 39.4011 135.421 39.4011C138.076 39.4011 140.268 36.4691 140.599 32.6737C140.603 32.6242 140.608 32.5741 140.612 32.5239C140.636 32.3595 140.652 32.1922 140.661 32.0236C140.667 31.908 140.672 31.7916 140.672 31.6738C140.672 31.3861 140.652 31.1018 140.612 30.8245C140.228 28.1356 138.05 26.0752 135.421 26.0752C132.792 26.0752 130.614 28.1356 130.23 30.8245C130.191 31.1011 130.17 31.3861 130.17 31.6738C130.17 31.7916 130.175 31.908 130.182 32.0236C130.191 32.1929 130.206 32.3595 130.23 32.5239ZM132.182 29.5048C132.182 29.5048 133.693 30.2482 135.421 30.2963C137.149 30.2489 138.66 29.5048 138.66 29.5048C139.755 29.9423 139.235 33.0618 139.235 33.0618C139.509 32.8688 139.761 32.7678 139.964 32.7162C139.663 36.0322 137.744 38.588 135.421 38.588C133.099 38.588 131.179 36.0322 130.878 32.7162C131.083 32.7678 131.333 32.8688 131.607 33.0618C131.606 33.0625 131.087 29.9423 132.182 29.5048Z" fill="#377DFF"/>
<path d="M120.531 13.9091C121.677 14.0394 122.682 14.2394 122.682 14.2394C120.396 12.9657 120.455 8.39481 120.455 8.39481C120.855 -0.459199 115.087 0.00415979 115.087 0.00415979L115.082 0.0180957L115.078 0.00415979C115.078 0.00415979 109.31 -0.458503 109.711 8.39481C109.711 8.39481 109.769 12.9664 107.483 14.2394C107.483 14.2394 108.098 14.1969 108.922 14.1816C106.588 15.2372 104.964 17.607 104.964 20.3627C104.964 24.0996 107.955 23.439 111.643 23.439H118.522C122.211 23.439 125.202 24.0996 125.202 20.3627C125.201 17.3345 123.238 14.7738 120.531 13.9091ZM116.628 15.6838L115.082 18.2271L113.537 15.6838C112.414 15.426 111.546 14.8951 111.197 14.2408C112.103 14.3209 112.87 14.4882 113.069 14.8184L112.218 12.896C113.033 13.721 114.019 14.2039 115.082 14.2039C116.12 14.2039 117.085 13.7426 117.889 12.9525L117.296 14.2039C117.495 13.8722 118.242 13.7823 119.119 13.8046C118.98 14.6561 117.991 15.371 116.628 15.6838ZM119.518 7.53568C119.431 8.70766 119.136 9.78698 118.691 10.6928C117.88 12.34 116.566 13.4109 115.082 13.4109C112.822 13.4109 110.953 10.922 110.66 7.69524C110.66 7.69524 112.445 7.39632 113.511 6.96919C113.511 6.96919 115.443 6.31561 117.802 4.59456C117.814 4.5862 117.825 4.57784 117.837 4.56878C117.837 4.56878 117.88 4.63009 117.94 4.73531C118.144 5.09067 118.583 6.15047 117.753 6.63543L119.263 6.83053H119.29L119.567 6.88209C119.565 7.10437 119.549 7.32246 119.518 7.53568Z" fill="#377DFF"/>
<path d="M89.2476 32.5232C89.2518 32.5734 89.2559 32.6242 89.26 32.6737C89.5909 36.4691 91.7836 39.4011 94.4379 39.4011C97.0929 39.4011 99.285 36.4691 99.6158 32.6737C99.6199 32.6242 99.6241 32.5734 99.6282 32.5232C99.6523 32.3588 99.6674 32.1922 99.6777 32.0229C99.6839 31.908 99.6887 31.7909 99.6887 31.6738C99.6887 31.3854 99.6681 31.1018 99.6289 30.8245C99.2451 28.1349 97.0674 26.0752 94.4386 26.0752C91.8098 26.0752 89.6321 28.1349 89.2483 30.8245C89.2084 31.1011 89.1885 31.3854 89.1885 31.6738C89.1885 31.7909 89.1933 31.908 89.1995 32.0229C89.2077 32.1929 89.2236 32.3588 89.2476 32.5232ZM91.1997 29.5048C91.1997 29.5048 92.7108 30.2482 94.4379 30.2963C96.1657 30.2489 97.6769 29.5048 97.6769 29.5048C98.7719 29.9423 98.2526 33.0618 98.2526 33.0618C98.5263 32.8688 98.7767 32.7678 98.981 32.7162C98.6797 36.0322 96.7607 38.588 94.4379 38.588C92.1145 38.588 90.1961 36.0322 89.8949 32.7162C90.0991 32.7678 90.3502 32.8688 90.6233 33.0618C90.6233 33.0618 90.104 29.9423 91.1997 29.5048Z" fill="#377DFF"/>
<path d="M98.9839 38.7109C98.9722 38.7088 98.9598 38.7081 98.9481 38.7067C98.8511 38.6928 98.7542 38.6816 98.6558 38.6719C98.6551 38.6823 98.6531 38.6921 98.6524 38.7025C98.651 38.7318 98.6455 38.7597 98.6427 38.7896C98.6249 38.9541 98.576 39.1143 98.4997 39.2683C97.9893 40.5699 96.3379 43.0372 95.3653 44.4384L95.1644 41.528C95.4485 41.3803 95.6934 41.1357 95.8495 40.8528C95.9623 40.6486 96.0311 40.4264 96.0311 40.1992C96.0311 40.1992 95.3054 40.5253 94.5653 40.5253C94.5227 40.5253 94.4807 40.5232 94.4381 40.5211C94.3955 40.5232 94.3535 40.5253 94.3115 40.5253C93.5708 40.5253 92.8451 40.1992 92.8451 40.1992C92.8451 40.4257 92.9139 40.6486 93.0267 40.8528C93.1835 41.1357 93.4277 41.3803 93.7118 41.528L93.5109 44.4384C92.5383 43.0372 90.8869 40.5699 90.3765 39.2683C90.3002 39.1143 90.252 38.9548 90.2335 38.7896C90.2307 38.7597 90.2252 38.7318 90.2231 38.7025C90.2231 38.6921 90.2211 38.6823 90.2204 38.6719C90.122 38.6816 90.025 38.6928 89.9288 38.7067C89.9164 38.7081 89.904 38.7088 89.8923 38.7109C86.5137 39.1875 83.9131 42.1265 83.9131 45.6801C83.9131 49.5675 87.0241 49.5584 90.8607 49.5584H94.4381H98.0154C101.852 49.5584 104.963 49.5675 104.963 45.6801C104.963 42.1265 102.363 39.1875 98.9839 38.7109Z" fill="#377DFF"/>
<path d="M116.757 26.0928H113.408V34.5608L106.172 38.7923L107.846 41.7307L115.083 37.4984L122.318 41.7307L123.993 38.7923L116.757 34.5608V26.0928Z" fill="#377DFF"/>
</g>
<g filter="url(#filter1_d_244_5496)">
<path d="M34.0818 88.4901C27.1286 88.4901 22.0098 83.6254 22.0098 76.0074C22.0098 68.288 27.2454 63.4064 34.3319 63.4064C38.984 63.4064 42.8358 65.484 44.9366 69.1494L40.5512 71.5142C39.284 69.0143 37.0163 67.815 34.3318 67.815C30.1632 67.815 27.0286 70.7203 27.0286 75.8891C27.0286 80.8721 29.9633 84.0813 34.5153 84.0813C37.5999 84.0813 40.4346 82.5273 41.1183 78.9632H34.532V74.8924H45.8538V88.1521H41.9187V84.7739C40.368 87.088 37.7668 88.4901 34.0818 88.4901ZM65.0126 68.2039H56.0753V73.7443H63.9955V78.1529H56.0753V83.6764H65.0126V88.1526H51.0397V63.7452H65.0126V68.2039ZM86.6221 63.7448H91.6076V88.1523H85.8217L75.1503 70.7033V88.1523H70.1647V63.7448H75.8839L86.6221 81.0918V63.7448ZM97.8436 88.1523V63.7448H102.846V88.1523H97.8436ZM117.986 88.4901C112.7 88.4901 108.565 85.7538 108.565 79.6053V63.7443H113.567V78.9127C113.567 82.6288 115.518 84.0139 117.986 84.0139C120.47 84.0139 122.438 82.6119 122.438 78.9127V63.7443H127.44V79.6053C127.44 85.7538 123.288 88.4901 117.986 88.4901ZM141.18 88.4901C136.011 88.4901 131.975 85.9733 131.242 81.3957L136.411 80.1964C136.744 82.9327 138.728 84.3516 141.38 84.3516C143.414 84.3516 145.031 83.4395 145.015 81.3786C144.998 79.0814 142.33 78.3552 139.395 77.4429C135.861 76.3281 132.076 75.0105 132.076 70.5175C132.076 65.9736 135.744 63.4062 140.579 63.4062C144.815 63.4062 149.083 65.1461 150.05 69.8249L145.215 71.0411C144.765 68.6086 143.147 67.5446 140.88 67.5446C138.862 67.5446 137.145 68.3891 137.145 70.3992C137.145 72.2742 139.512 72.8991 142.247 73.7268C145.882 74.8416 150.184 76.2604 150.184 81.1251C150.184 86.3107 145.898 88.4901 141.18 88.4901Z" fill="#377DFF"/>
</g>
<g filter="url(#filter2_d_244_5496)">
<path d="M179.361 63.4062H183.529V88.4901H179.361V77.7777H167.867V88.4901H163.699V63.4062H167.867V74.0659H179.361V63.4062ZM203.844 88.4901L197.419 77.3029H194.745V88.4901H190.595V63.4062H199.191C204.556 63.4062 206.917 66.6603 206.917 70.6886C206.917 74.1891 204.869 76.5462 201.587 77.1442L208.723 88.4898L203.844 88.4901ZM194.745 66.9601V74.1896H198.583C201.622 74.1896 202.924 72.7473 202.924 70.6012C202.924 68.4729 201.622 66.9601 198.583 66.9601H194.745Z" fill="#377DFF"/>
</g>
<defs>
<filter id="filter0_d_244_5496" x="79.9131" y="0" width="69.9023" height="57.5596" filterUnits="userSpaceOnUse" color-interpolation-filters="sRGB">
<feFlood flood-opacity="0" result="BackgroundImageFix"/>
<feColorMatrix in="SourceAlpha" type="matrix" values="0 0 0 0 0 0 0 0 0 0 0 0 0 0 0 0 0 0 127 0" result="hardAlpha"/>
<feOffset dy="4"/>
<feGaussianBlur stdDeviation="2"/>
<feComposite in2="hardAlpha" operator="out"/>
<feColorMatrix type="matrix" values="0 0 0 0 0 0 0 0 0 0 0 0 0 0 0 0 0 0 0.25 0"/>
<feBlend mode="normal" in2="BackgroundImageFix" result="effect1_dropShadow_244_5496"/>
<feBlend mode="normal" in="SourceGraphic" in2="effect1_dropShadow_244_5496" result="shape"/>
</filter>
<filter id="filter1_d_244_5496" x="18.0098" y="63.4062" width="136.174" height="33.084" filterUnits="userSpaceOnUse" color-interpolation-filters="sRGB">
<feFlood flood-opacity="0" result="BackgroundImageFix"/>
<feColorMatrix in="SourceAlpha" type="matrix" values="0 0 0 0 0 0 0 0 0 0 0 0 0 0 0 0 0 0 127 0" result="hardAlpha"/>
<feOffset dy="4"/>
<feGaussianBlur stdDeviation="2"/>
<feComposite in2="hardAlpha" operator="out"/>
<feColorMatrix type="matrix" values="0 0 0 0 0 0 0 0 0 0 0 0 0 0 0 0 0 0 0.25 0"/>
<feBlend mode="normal" in2="BackgroundImageFix" result="effect1_dropShadow_244_5496"/>
<feBlend mode="normal" in="SourceGraphic" in2="effect1_dropShadow_244_5496" result="shape"/>
</filter>
<filter id="filter2_d_244_5496" x="159.699" y="63.4062" width="53.0244" height="33.084" filterUnits="userSpaceOnUse" color-interpolation-filters="sRGB">
<feFlood flood-opacity="0" result="BackgroundImageFix"/>
<feColorMatrix in="SourceAlpha" type="matrix" values="0 0 0 0 0 0 0 0 0 0 0 0 0 0 0 0 0 0 127 0" result="hardAlpha"/>
<feOffset dy="4"/>
<feGaussianBlur stdDeviation="2"/>
<feComposite in2="hardAlpha" operator="out"/>
<feColorMatrix type="matrix" values="0 0 0 0 0 0 0 0 0 0 0 0 0 0 0 0 0 0 0.25 0"/>
<feBlend mode="normal" in2="BackgroundImageFix" result="effect1_dropShadow_244_5496"/>
<feBlend mode="normal" in="SourceGraphic" in2="effect1_dropShadow_244_5496" result="shape"/>
</filter>
</defs>
</svg>
