<svg width="20" height="21" viewBox="0 0 20 21" fill="none" xmlns="http://www.w3.org/2000/svg">
<g filter="url(#filter0_i_244_5640)">
<path d="M12.7503 14.4165L13.917 13.2498L10.8337 10.1665V6.33317H9.16699V10.8332L12.7503 14.4165ZM10.0003 18.8332C8.84755 18.8332 7.76421 18.6144 6.75033 18.1769C5.73644 17.7394 4.85449 17.1457 4.10449 16.3957C3.35449 15.6457 2.76074 14.7637 2.32324 13.7498C1.88574 12.7359 1.66699 11.6526 1.66699 10.4998C1.66699 9.34706 1.88574 8.26373 2.32324 7.24984C2.76074 6.23595 3.35449 5.354 4.10449 4.604C4.85449 3.854 5.73644 3.26025 6.75033 2.82275C7.76421 2.38525 8.84755 2.1665 10.0003 2.1665C11.1531 2.1665 12.2364 2.38525 13.2503 2.82275C14.2642 3.26025 15.1462 3.854 15.8962 4.604C16.6462 5.354 17.2399 6.23595 17.6774 7.24984C18.1149 8.26373 18.3337 9.34706 18.3337 10.4998C18.3337 11.6526 18.1149 12.7359 17.6774 13.7498C17.2399 14.7637 16.6462 15.6457 15.8962 16.3957C15.1462 17.1457 14.2642 17.7394 13.2503 18.1769C12.2364 18.6144 11.1531 18.8332 10.0003 18.8332ZM10.0003 17.1665C11.8475 17.1665 13.4205 16.5172 14.7191 15.2186C16.0177 13.92 16.667 12.3471 16.667 10.4998C16.667 8.65262 16.0177 7.0797 14.7191 5.78109C13.4205 4.48248 11.8475 3.83317 10.0003 3.83317C8.1531 3.83317 6.58019 4.48248 5.28158 5.78109C3.98296 7.0797 3.33366 8.65262 3.33366 10.4998C3.33366 12.3471 3.98296 13.92 5.28158 15.2186C6.58019 16.5172 8.1531 17.1665 10.0003 17.1665Z" fill="#C4C4C4"/>
</g>
<path d="M12.7503 14.4165L13.917 13.2498L10.8337 10.1665V6.33317H9.16699V10.8332L12.7503 14.4165ZM10.0003 18.8332C8.84755 18.8332 7.76421 18.6144 6.75033 18.1769C5.73644 17.7394 4.85449 17.1457 4.10449 16.3957C3.35449 15.6457 2.76074 14.7637 2.32324 13.7498C1.88574 12.7359 1.66699 11.6526 1.66699 10.4998C1.66699 9.34706 1.88574 8.26373 2.32324 7.24984C2.76074 6.23595 3.35449 5.354 4.10449 4.604C4.85449 3.854 5.73644 3.26025 6.75033 2.82275C7.76421 2.38525 8.84755 2.1665 10.0003 2.1665C11.1531 2.1665 12.2364 2.38525 13.2503 2.82275C14.2642 3.26025 15.1462 3.854 15.8962 4.604C16.6462 5.354 17.2399 6.23595 17.6774 7.24984C18.1149 8.26373 18.3337 9.34706 18.3337 10.4998C18.3337 11.6526 18.1149 12.7359 17.6774 13.7498C17.2399 14.7637 16.6462 15.6457 15.8962 16.3957C15.1462 17.1457 14.2642 17.7394 13.2503 18.1769C12.2364 18.6144 11.1531 18.8332 10.0003 18.8332ZM10.0003 17.1665C11.8475 17.1665 13.4205 16.5172 14.7191 15.2186C16.0177 13.92 16.667 12.3471 16.667 10.4998C16.667 8.65262 16.0177 7.0797 14.7191 5.78109C13.4205 4.48248 11.8475 3.83317 10.0003 3.83317C8.1531 3.83317 6.58019 4.48248 5.28158 5.78109C3.98296 7.0797 3.33366 8.65262 3.33366 10.4998C3.33366 12.3471 3.98296 13.92 5.28158 15.2186C6.58019 16.5172 8.1531 17.1665 10.0003 17.1665Z" stroke="#C4C4C4" stroke-width="2"/>
<defs>
<filter id="filter0_i_244_5640" x="0.666992" y="1.1665" width="18.667" height="22.6665" filterUnits="userSpaceOnUse" color-interpolation-filters="sRGB">
<feFlood flood-opacity="0" result="BackgroundImageFix"/>
<feBlend mode="normal" in="SourceGraphic" in2="BackgroundImageFix" result="shape"/>
<feColorMatrix in="SourceAlpha" type="matrix" values="0 0 0 0 0 0 0 0 0 0 0 0 0 0 0 0 0 0 127 0" result="hardAlpha"/>
<feOffset dy="4"/>
<feGaussianBlur stdDeviation="2"/>
<feComposite in2="hardAlpha" operator="arithmetic" k2="-1" k3="1"/>
<feColorMatrix type="matrix" values="0 0 0 0 0 0 0 0 0 0 0 0 0 0 0 0 0 0 0.25 0"/>
<feBlend mode="normal" in2="shape" result="effect1_innerShadow_244_5640"/>
</filter>
</defs>
</svg>
