<svg width="18" height="17" viewBox="0 0 18 17" fill="#3b3b3b" xmlns="http://www.w3.org/2000/svg">
<path d="M13.167 0.166504H4.83366C2.53366 0.166504 0.666992 2.02484 0.666992 4.3165V9.29984V10.1332C0.666992 12.4248 2.53366 14.2832 4.83366 14.2832H6.08366C6.30866 14.2832 6.60866 14.4332 6.75033 14.6165L8.00033 16.2748C8.55033 17.0082 9.45033 17.0082 10.0003 16.2748L11.2503 14.6165C11.4087 14.4082 11.6587 14.2832 11.917 14.2832H13.167C15.467 14.2832 17.3337 12.4248 17.3337 10.1332V4.3165C17.3337 2.02484 15.467 0.166504 13.167 0.166504ZM9.83366 9.95817H4.83366C4.49199 9.95817 4.20866 9.67484 4.20866 9.33317C4.20866 8.9915 4.49199 8.70817 4.83366 8.70817H9.83366C10.1753 8.70817 10.4587 8.9915 10.4587 9.33317C10.4587 9.67484 10.1753 9.95817 9.83366 9.95817ZM13.167 5.7915H4.83366C4.49199 5.7915 4.20866 5.50817 4.20866 5.1665C4.20866 4.82484 4.49199 4.5415 4.83366 4.5415H13.167C13.5087 4.5415 13.792 4.82484 13.792 5.1665C13.792 5.50817 13.5087 5.7915 13.167 5.7915Z" fill="#C4C4C4"/>
</svg>
