<svg width="40" height="40" viewBox="0 0 40 40" fill="none" xmlns="http://www.w3.org/2000/svg">
<g filter="url(#filter0_i_244_5228)">
<path d="M14 17.5L16.942 19.2394C18.6572 20.2535 19.3428 20.2535 21.058 19.2394L24 17.5" stroke="#C4C4C4" stroke-width="3" stroke-linecap="round" stroke-linejoin="round"/>
<path d="M9.01577 22.4756C9.08114 25.5412 9.11383 27.0739 10.245 28.2094C11.3761 29.3448 12.9503 29.3843 16.0988 29.4634C18.0393 29.5122 19.9607 29.5122 21.9012 29.4634C25.0497 29.3843 26.6239 29.3448 27.7551 28.2094C28.8862 27.0739 28.9189 25.5412 28.9842 22.4756C29.0053 21.4899 29.0053 20.5101 28.9842 19.5244C28.9189 16.4589 28.8862 14.9261 27.7551 13.7907C26.6239 12.6552 25.0497 12.6157 21.9012 12.5366C19.9607 12.4878 18.0393 12.4878 16.0988 12.5366C12.9503 12.6157 11.3761 12.6552 10.245 13.7906C9.11382 14.9261 9.08114 16.4588 9.01576 19.5244C8.99474 20.5101 8.99475 21.4899 9.01577 22.4756Z" stroke="#C4C4C4" stroke-width="3" stroke-linejoin="round"/>
</g>
<!-- <circle cx="28" cy="11" r="4.5" fill="#534FEB" stroke="white"/> -->
<defs>
<filter id="filter0_i_244_5228" x="7.5" y="11" width="23" height="24" filterUnits="userSpaceOnUse" color-interpolation-filters="sRGB">
<feFlood flood-opacity="0" result="BackgroundImageFix"/>
<feBlend mode="normal" in="SourceGraphic" in2="BackgroundImageFix" result="shape"/>
<feColorMatrix in="SourceAlpha" type="matrix" values="0 0 0 0 0 0 0 0 0 0 0 0 0 0 0 0 0 0 127 0" result="hardAlpha"/>
<feOffset dy="4"/>
<feGaussianBlur stdDeviation="2"/>
<feComposite in2="hardAlpha" operator="arithmetic" k2="-1" k3="1"/>
<feColorMatrix type="matrix" values="0 0 0 0 0 0 0 0 0 0 0 0 0 0 0 0 0 0 0.25 0"/>
<feBlend mode="normal" in2="shape" result="effect1_innerShadow_244_5228"/>
</filter>
</defs>
</svg>
