<svg width="20" height="20" viewBox="0 0 20 20" fill="none" xmlns="http://www.w3.org/2000/svg">
<path d="M16.8337 9.58333C16.8337 10.4118 17.5052 11.0833 18.3337 11.0833C19.1621 11.0833 19.8337 10.4118 19.8337 9.58333H16.8337ZM3.33366 16.3938L3.66855 14.9317L3.66855 14.9317L3.33366 16.3938ZM16.667 2.77283L17.0019 1.31069L17.0019 1.31069L16.667 2.77283ZM3.33366 3.89384L3.66855 2.4317L3.33366 3.89384ZM18.1719 3.76639L19.5263 3.12175L19.5263 3.12174L18.1719 3.76639ZM17.7012 3.17566L16.7704 4.35195L16.7704 4.35196L17.7012 3.17566ZM1.82876 15.4003L0.474342 16.0449L0.474342 16.0449L1.82876 15.4003ZM2.29948 15.991L3.23024 14.8147L3.23023 14.8147L2.29948 15.991ZM9.63788 17.5864C10.4244 17.3264 10.8512 16.4779 10.5912 15.6914C10.3311 14.9048 9.48265 14.478 8.6961 14.7381L9.63788 17.5864ZM5.83366 5.66667C7.61406 5.66667 9.29529 5.31816 10.6351 4.69241L9.36557 1.97426C8.48447 2.38578 7.24837 2.66667 5.83366 2.66667V5.66667ZM10.6351 4.69241C11.5162 4.28089 12.7523 4 14.167 4V1C12.3866 1 10.7054 1.34851 9.36557 1.97426L10.6351 4.69241ZM16.8337 5.09498V9.58333H19.8337V5.09498H16.8337ZM0.166992 5.09498V14.0717H3.16699V5.09498H0.166992ZM2.99876 17.856C3.87967 18.0577 4.83755 18.1667 5.83366 18.1667V15.1667C5.05323 15.1667 4.32046 15.081 3.66855 14.9317L2.99876 17.856ZM14.167 4C14.9474 4 15.6802 4.08565 16.3321 4.23497L17.0019 1.31069C16.121 1.10893 15.1631 1 14.167 1V4ZM2.99876 5.35597C3.87967 5.55774 4.83755 5.66667 5.83366 5.66667V2.66667C5.05323 2.66667 4.32046 2.58102 3.66855 2.4317L2.99876 5.35597ZM19.8337 5.09498C19.8337 4.53884 19.8633 3.82975 19.5263 3.12175L16.8175 4.41103C16.8175 4.41103 16.8175 4.41098 16.8174 4.41088C16.8174 4.41078 16.8173 4.41064 16.8172 4.41045C16.8171 4.41007 16.8168 4.40955 16.8165 4.40889C16.816 4.40752 16.8153 4.40585 16.8146 4.40396C16.8132 4.39987 16.8123 4.39692 16.8121 4.39615C16.8117 4.3946 16.816 4.41023 16.8205 4.45659C16.8321 4.57488 16.8337 4.73862 16.8337 5.09498H19.8337ZM16.3321 4.23497C16.4603 4.26434 16.5482 4.28457 16.6232 4.30375C16.6956 4.32226 16.7324 4.33398 16.7518 4.34092C16.7673 4.34649 16.7667 4.34729 16.7596 4.34336C16.7526 4.33948 16.7548 4.33962 16.7704 4.35195L18.6319 1.99936C18.0343 1.5265 17.4598 1.41557 17.0019 1.31069L16.3321 4.23497ZM19.5263 3.12174C19.3354 2.72059 18.9803 2.27503 18.6319 1.99935L16.7704 4.35196C16.7573 4.34156 16.75 4.33494 16.7487 4.33366C16.747 4.33214 16.7485 4.33346 16.7529 4.33801C16.7623 4.34771 16.7763 4.36336 16.792 4.38307C16.8077 4.40278 16.8198 4.41991 16.8272 4.43119C16.8306 4.43648 16.8316 4.43826 16.8305 4.43632C16.8295 4.43468 16.8247 4.42617 16.8175 4.41104L19.5263 3.12174ZM3.16699 5.09498C3.16699 5.16088 3.14801 5.22532 3.11984 5.275C3.09406 5.3205 3.06792 5.34164 3.05774 5.34873C3.04776 5.35568 3.04203 5.35721 3.03832 5.35797C3.03341 5.35898 3.0198 5.36079 2.99876 5.35597L3.66855 2.4317C2.13563 2.08059 0.166992 3.10957 0.166992 5.09498H3.16699ZM0.166992 14.0717C0.166992 14.6278 0.137363 15.3369 0.474342 16.0449L3.18317 14.7556C3.18317 14.7556 3.18319 14.7557 3.18324 14.7558C3.18328 14.7559 3.18335 14.756 3.18343 14.7562C3.1836 14.7566 3.18383 14.7571 3.18411 14.7578C3.18468 14.7591 3.18534 14.7608 3.18602 14.7627C3.1875 14.7668 3.18831 14.7697 3.18851 14.7705C3.1889 14.7721 3.18465 14.7564 3.18013 14.7101C3.16859 14.5918 3.16699 14.4281 3.16699 14.0717H0.166992ZM3.66855 14.9317C3.54033 14.9023 3.45241 14.8821 3.37743 14.8629C3.30508 14.8444 3.26822 14.8327 3.24889 14.8258C3.23334 14.8202 3.23391 14.8194 3.24103 14.8233C3.24807 14.8272 3.24584 14.8271 3.23024 14.8147L1.36872 17.1673C1.96631 17.6402 2.54086 17.7511 2.99876 17.856L3.66855 14.9317ZM0.474342 16.0449C0.665271 16.4461 1.02032 16.8916 1.36872 17.1673L3.23023 14.8147C3.24338 14.8251 3.2506 14.8317 3.25199 14.833C3.25364 14.8345 3.25211 14.8332 3.24773 14.8287C3.23838 14.819 3.22439 14.8033 3.20869 14.7836C3.19298 14.7639 3.18085 14.7468 3.17348 14.7355C3.17003 14.7302 3.16908 14.7284 3.17019 14.7304C3.17113 14.732 3.17597 14.7405 3.18317 14.7556L0.474342 16.0449ZM5.83366 18.1667C7.20344 18.1667 8.50619 17.9606 9.63788 17.5864L8.6961 14.7381C7.89418 15.0032 6.91195 15.1667 5.83366 15.1667V18.1667Z" fill="#C4C4C4"/>
<path opacity="0.4" d="M11.667 15.8333C11.667 15.8333 12.5003 15.8333 13.3337 17.5C13.3337 17.5 15.9807 13.3333 18.3337 12.5" stroke="#C4C4C4" stroke-width="3" stroke-linecap="round" stroke-linejoin="round"/>
<path d="M12.0837 9.58333C12.0837 10.7339 11.1509 11.6667 10.0003 11.6667C8.84973 11.6667 7.91699 10.7339 7.91699 9.58333C7.91699 8.43274 8.84973 7.5 10.0003 7.5C11.1509 7.5 12.0837 8.43274 12.0837 9.58333Z" stroke="#C4C4C4" stroke-width="3" stroke-linejoin="round"/>
<path d="M4.58398 10.4165L4.58398 10.424" stroke="#C4C4C4" stroke-width="3" stroke-linecap="round" stroke-linejoin="round"/>
<path d="M15.417 8.74365L15.417 8.75114" stroke="#C4C4C4" stroke-width="3" stroke-linecap="round" stroke-linejoin="round"/>
</svg>
