<svg width="20" height="21" viewBox="0 0 20 21" fill="none" xmlns="http://www.w3.org/2000/svg">
<path d="M13.492 2.1665H6.50866C3.47533 2.1665 1.66699 3.97484 1.66699 7.00817V13.9832C1.66699 17.0248 3.47533 18.8332 6.50866 18.8332H13.4837C16.517 18.8332 18.3253 17.0248 18.3253 13.9915V7.00817C18.3337 3.97484 16.5253 2.1665 13.492 2.1665ZM6.39199 5.08317C6.39199 4.7415 6.67533 4.45817 7.01699 4.45817C7.35866 4.45817 7.64199 4.7415 7.64199 5.08317V8.33317C7.64199 8.67484 7.35866 8.95817 7.01699 8.95817C6.67533 8.95817 6.39199 8.67484 6.39199 8.33317V5.08317ZM7.99288 14.1664C7.79197 14.2622 7.64199 14.453 7.64199 14.6756V15.9165C7.64199 16.2582 7.35866 16.5415 7.01699 16.5415C6.67533 16.5415 6.39199 16.2582 6.39199 15.9165V14.6756C6.39199 14.453 6.24198 14.2623 6.04117 14.1662C5.27643 13.8005 4.75033 13.0261 4.75033 12.1248C4.75033 10.8748 5.76699 9.84984 7.01699 9.84984C8.26699 9.84984 9.29199 10.8665 9.29199 12.1248C9.29199 13.0262 8.75941 13.8007 7.99288 14.1664ZM13.6087 15.9165C13.6087 16.2582 13.3253 16.5415 12.9837 16.5415C12.642 16.5415 12.3587 16.2582 12.3587 15.9165V12.6665C12.3587 12.3248 12.642 12.0415 12.9837 12.0415C13.3253 12.0415 13.6087 12.3248 13.6087 12.6665V15.9165ZM12.9837 11.1415C11.7337 11.1415 10.7087 10.1248 10.7087 8.8665C10.7087 7.96517 11.2412 7.19064 12.0078 6.82497C12.2087 6.72913 12.3587 6.53831 12.3587 6.31571V5.08317C12.3587 4.7415 12.642 4.45817 12.9837 4.45817C13.3253 4.45817 13.6087 4.7415 13.6087 5.08317V6.32405C13.6087 6.54664 13.7587 6.73741 13.9595 6.83345C14.7242 7.19918 15.2503 7.97363 15.2503 8.87484C15.2503 10.1248 14.2337 11.1415 12.9837 11.1415Z" fill="#C4C4C4"/>
</svg>
