<svg width="20" height="20" viewBox="0 0 20 20" fill="none" xmlns="http://www.w3.org/2000/svg">
<path d="M17.0837 14.107V8.33317C17.0837 5.19047 17.0837 3.61913 16.1073 2.64281C15.131 1.6665 13.5597 1.6665 10.417 1.6665H9.58366C6.44096 1.6665 4.86961 1.6665 3.8933 2.64281C2.91699 3.61913 2.91699 5.19047 2.91699 8.33317V16.2498" stroke="#C4C4C4" stroke-width="3" stroke-linecap="round"/>
<path d="M17.0837 14.1665H5.00033C3.84973 14.1665 2.91699 15.0992 2.91699 16.2498C2.91699 17.4004 3.84973 18.3332 5.00033 18.3332H17.0837" stroke="#C4C4C4" stroke-width="3" stroke-linecap="round"/>
<path d="M17.0833 18.3332C15.9327 18.3332 15 17.4004 15 16.2498C15 15.0992 15.9327 14.1665 17.0833 14.1665" stroke="#C4C4C4" stroke-width="3" stroke-linecap="round"/>
<path d="M12.5 5.83301L7.5 5.83301" stroke="#C4C4C4" stroke-width="3" stroke-linecap="round" stroke-linejoin="round"/>
<path d="M10 9.1665L7.5 9.1665" stroke="#C4C4C4" stroke-width="3" stroke-linecap="round" stroke-linejoin="round"/>
</svg>
